<svg width="800" height="800" viewBox="0 0 800 800" fill="none" xmlns="http://www.w3.org/2000/svg">
<rect width="800" height="800" rx="349" fill="black"/>
<path d="M535.252 205.724C552.319 221.874 561.735 244.964 562.713 268.506C562.498 291.31 553.815 314.14 537.987 330.321C532.52 335.575 526.417 339.752 520.034 343.762C519.292 344.24 518.55 344.719 517.785 345.212C507.721 351.007 495.127 353.989 483.706 354.722C473.948 355.897 469.692 362.819 463.929 370.123C449.354 385.701 427.443 396.016 406.354 396.697C401.561 396.79 396.769 396.802 391.975 396.798C388.756 396.797 385.538 396.812 382.318 396.831C373.175 396.884 364.031 396.913 354.887 396.92C349.27 396.926 343.654 396.954 338.038 396.995C335.912 397.006 333.786 397.009 331.661 397.003C314.609 396.956 302.021 398.759 289.105 411.007C277.133 423.697 272.741 439.749 272.835 456.952C273.203 471.244 276.797 483.577 283.271 496.197C283.736 497.14 284.2 498.082 284.678 499.054C289.902 509.231 296.991 517.406 305.089 525.275C306.458 526.622 307.774 528.024 309.079 529.435C309.079 530.191 309.079 530.948 309.079 531.727C309.736 532.041 310.393 532.354 311.069 532.676C313.505 533.986 315.481 535.43 317.635 537.171C322.781 541.162 328.132 544.549 333.766 547.773C334.868 548.411 335.97 549.05 337.106 549.707C355.098 559.532 376.069 566.442 396.568 566.496C397.6 566.504 398.632 566.512 399.695 566.519C401.868 566.531 404.041 566.536 406.213 566.536C409.468 566.541 412.722 566.583 415.977 566.626C458.792 566.889 496.04 547.484 526.766 517.974C527.484 517.316 528.201 516.659 528.94 515.981C535.477 509.77 540.463 502.136 545.6 494.725C546.7 493.14 547.815 491.566 548.936 489.996C558.153 476.647 564.336 461.171 569.406 445.767C569.674 444.985 569.942 444.204 570.218 443.398C576.045 426.106 576.064 409.045 576.184 390.914C576.204 388.591 576.239 386.269 576.278 383.947C576.324 380.959 576.342 377.97 576.328 374.981C576.48 365.767 577.905 359.869 583.993 352.931C590.188 346.904 595.845 346.778 604.147 346.891C610.253 347.444 614.346 349.399 618.537 353.969C622.922 359.644 624.519 363.838 624.552 371.083C624.562 372.731 624.562 372.731 624.573 374.413C624.575 376.187 624.575 376.187 624.577 377.998C624.581 379.228 624.585 380.458 624.588 381.726C624.594 384.334 624.597 386.942 624.596 389.55C624.599 393.496 624.619 397.442 624.641 401.388C624.687 418.781 623.539 434.255 618.638 450.997C618.293 452.18 617.949 453.363 617.594 454.582C607.567 488.195 591.89 516.784 569.406 543.189C568.768 543.982 568.13 544.775 567.473 545.593C555.628 560.167 541.119 571.885 525.644 582.157C524.896 582.659 524.147 583.161 523.376 583.678C506.541 594.822 487.734 603.047 468.417 608.518C467.292 608.837 466.166 609.156 465.007 609.485C433.656 617.612 400.364 620.031 368.551 613.103C367.283 612.835 367.283 612.835 365.99 612.562C343.301 607.599 320.757 598.419 301.225 585.595C300.566 585.165 299.906 584.735 299.227 584.291C287.955 576.798 278.198 567.759 268.684 558.088C268.104 557.5 267.523 556.912 266.925 556.306C241.341 530.026 224.315 493.166 223.239 456.011C223.829 436.423 228.809 418.272 237.375 400.83C237.776 400.013 238.176 399.197 238.589 398.356C238.893 397.738 239.197 397.12 239.509 396.484C238.866 396.489 238.223 396.494 237.56 396.499C230.843 396.55 224.126 396.584 217.409 396.61C214.904 396.621 212.4 396.637 209.896 396.657C206.289 396.685 202.682 396.697 199.075 396.708C197.961 396.719 196.848 396.731 195.702 396.743C186.962 396.745 180.222 396.096 173.516 389.822C172.256 388.676 172.256 388.676 170.97 387.507C166.125 381.914 166.08 376.161 166.227 368.981C167.053 360.767 170.911 355.893 177.027 350.786C181.281 347.873 185.628 348.178 190.535 348.18C191.383 348.176 192.23 348.172 193.103 348.168C195.95 348.156 198.798 348.152 201.646 348.147C203.684 348.14 205.723 348.132 207.761 348.124C212.157 348.107 216.552 348.094 220.948 348.083C227.904 348.065 234.859 348.038 241.815 348.008C261.597 347.927 281.379 347.858 301.16 347.8C312.082 347.767 323.003 347.727 333.924 347.677C340.832 347.647 347.74 347.626 354.648 347.613C358.958 347.603 363.268 347.583 367.578 347.56C369.569 347.552 371.56 347.547 373.551 347.547C396.516 347.641 396.516 347.641 415.749 335.954C416.466 335.126 417.184 334.299 417.923 333.446C416.14 329.33 413.65 326.138 410.91 322.63C396.482 303.418 391.858 280.419 394.359 256.656C398.242 233.425 409.247 213.463 428.022 199.349C432.032 196.823 436.142 194.601 440.365 192.472C441.222 192.035 442.08 191.598 442.964 191.147C474.09 176.132 509.237 183.907 535.252 205.724ZM451.586 242.902C443.989 252.865 439.56 261.604 440.601 274.483C441.756 281.625 444.388 287.287 448.219 293.332C448.844 294.348 449.469 295.365 450.113 296.412C458.054 304.524 467.345 308.043 478.516 308.232C490.344 306.793 499.501 301.933 507.007 292.508C513.871 282.569 515.881 273.337 514.423 261.24C512.067 250.977 506.133 243.114 497.592 237.315C483.116 228.95 463.369 230.32 451.586 242.902Z" fill="white"/>
</svg>
