<svg width="1000" height="1000" viewBox="0 0 1000 1000" fill="none" xmlns="http://www.w3.org/2000/svg">
<rect width="1000" height="1000" fill="white"/>
<path d="M750.237 154.388C780.691 183.137 797.493 224.241 799.237 266.151C798.854 306.746 783.361 347.387 755.117 376.193C745.363 385.544 734.472 392.98 723.082 400.118C721.758 400.971 720.433 401.823 719.069 402.701C701.112 413.017 678.638 418.325 658.259 419.629C640.847 421.722 633.254 434.044 622.97 447.046C596.962 474.778 557.865 493.14 520.234 494.353C511.682 494.518 503.131 494.539 494.578 494.533C488.834 494.531 483.09 494.557 477.346 494.592C461.03 494.685 444.714 494.736 428.398 494.75C418.376 494.76 408.355 494.81 398.333 494.883C394.54 494.903 390.747 494.908 386.953 494.897C356.527 494.814 334.065 498.024 311.019 519.827C289.656 542.417 281.819 570.992 281.986 601.617C282.644 627.06 289.056 649.014 300.609 671.48C301.437 673.158 302.266 674.836 303.119 676.565C312.44 694.683 325.091 709.236 339.54 723.244C341.983 725.641 344.331 728.138 346.66 730.649C346.66 731.996 346.66 733.342 346.66 734.73C347.832 735.287 349.004 735.845 350.211 736.419C354.558 738.75 358.083 741.321 361.927 744.421C371.109 751.524 380.657 757.555 390.71 763.294C392.676 764.43 394.643 765.566 396.669 766.737C428.774 784.227 466.194 796.527 502.773 796.625C504.614 796.638 506.456 796.652 508.353 796.666C512.23 796.686 516.107 796.696 519.983 796.695C525.792 796.704 531.597 796.778 537.405 796.856C613.804 797.324 680.268 762.779 735.095 710.246C736.375 709.076 737.655 707.905 738.974 706.699C750.639 695.642 759.536 682.053 768.701 668.859C770.664 666.037 772.655 663.236 774.655 660.442C791.101 636.677 802.134 609.128 811.18 581.706C811.658 580.314 812.136 578.922 812.629 577.488C823.026 546.706 823.062 516.333 823.274 484.058C823.311 479.923 823.372 475.789 823.442 471.655C823.525 466.335 823.557 461.015 823.532 455.695C823.804 439.291 826.346 428.792 837.209 416.441C848.264 405.712 858.358 405.487 873.171 405.689C884.068 406.674 891.371 410.153 898.849 418.29C906.673 428.393 909.523 435.858 909.581 448.755C909.6 451.689 909.6 451.689 909.62 454.683C909.623 457.842 909.623 457.842 909.626 461.065C909.633 463.255 909.64 465.445 909.646 467.701C909.657 472.343 909.661 476.986 909.661 481.629C909.665 488.654 909.702 495.679 909.74 502.704C909.822 533.666 907.773 561.212 899.029 591.015C898.414 593.121 897.799 595.228 897.165 597.398C879.275 657.235 851.3 708.127 811.18 755.133C810.042 756.545 808.904 757.958 807.731 759.413C786.595 785.357 760.706 806.218 733.093 824.503C731.757 825.397 730.422 826.291 729.046 827.211C699.006 847.049 665.447 861.692 630.979 871.431C628.97 871.999 626.962 872.567 624.894 873.152C568.952 887.619 509.547 891.925 452.779 879.592C450.518 879.116 450.518 879.116 448.21 878.63C407.724 869.794 367.497 853.453 332.645 830.624C331.468 829.858 330.292 829.092 329.08 828.302C308.966 814.963 291.556 798.873 274.58 781.657C273.544 780.61 272.508 779.563 271.441 778.484C225.789 731.701 195.41 666.083 193.489 599.941C194.541 565.072 203.427 532.76 218.712 501.71C219.428 500.256 220.143 498.803 220.879 497.305C221.421 496.205 221.963 495.106 222.521 493.973C221.374 493.982 220.226 493.991 219.043 494C207.057 494.091 195.071 494.152 183.085 494.197C178.617 494.217 174.148 494.245 169.68 494.281C163.243 494.33 156.807 494.353 150.37 494.371C148.384 494.392 146.398 494.413 144.352 494.435C128.757 494.438 116.731 493.282 104.765 482.113C102.515 480.074 102.515 480.074 100.22 477.993C91.5757 468.036 91.4962 457.795 91.7578 445.013C93.2319 430.391 100.115 421.714 111.029 412.623C118.62 407.437 126.376 407.979 135.133 407.984C136.645 407.977 138.157 407.97 139.714 407.962C144.796 407.941 149.877 407.933 154.958 407.925C158.595 407.913 162.233 407.899 165.87 407.884C173.714 407.854 181.557 407.83 189.4 407.811C201.812 407.779 214.224 407.73 226.635 407.678C261.933 407.533 297.232 407.411 332.53 407.307C352.017 407.249 371.505 407.177 390.992 407.089C403.319 407.035 415.645 406.998 427.972 406.975C435.663 406.956 443.353 406.921 451.043 406.881C454.596 406.865 458.149 406.857 461.702 406.856C502.681 407.024 502.681 407.024 536.998 386.219C538.279 384.746 539.559 383.273 540.878 381.756C537.697 374.428 533.254 368.746 528.364 362.5C502.62 328.3 494.369 287.358 498.831 245.055C505.76 203.699 525.397 168.164 558.898 143.039C566.053 138.543 573.387 134.587 580.922 130.797C582.453 130.019 583.984 129.24 585.56 128.438C641.101 101.709 703.817 115.55 750.237 154.388ZM600.945 220.571C587.389 238.307 579.487 253.863 581.345 276.791C583.405 289.505 588.102 299.584 594.938 310.345C596.053 312.154 597.168 313.964 598.317 315.828C612.487 330.268 629.066 336.533 648.999 336.869C670.105 334.308 686.444 325.656 699.837 308.878C712.086 291.185 715.672 274.75 713.07 253.216C708.866 234.946 698.279 220.949 683.037 210.624C657.207 195.734 621.97 198.172 600.945 220.571Z" fill="black"/>
</svg>
